<svg version="1.1" id="圖層_1" xmlns="http://www.w3.org/2000/svg" xmlns:xlink="http://www.w3.org/1999/xlink" x="0px" y="0px" viewBox="0 0 100 100" style="transform-origin: 50px 50px 0px;" xml:space="preserve"><g style="transform-origin: 50px 50px 0px;"><g style="transform-origin: 50px 50px 0px; transform: scale(1);"><g style="transform-origin: 50px 50px 0px;"><g><style type="text/css" class="ld ld-fade" style="transform-origin: 50px 50px 0px; animation-duration: 1s; animation-delay: -1s; animation-direction: normal;">.st0{fill:#E0E0E0;stroke:#333333;stroke-width:4;stroke-miterlimit:10;} .st1{fill:#FFFFFF;} .st2{fill:#333333;stroke:#333333;stroke-width:2;stroke-miterlimit:10;} .st3{fill:#FFFFFF;stroke:#333333;stroke-width:3.5699;stroke-miterlimit:10;} .st4{fill:#A0C8D7;} .st5{fill:#ABBD81;} .st6{fill:#FFFFFF;stroke:#333333;stroke-width:3.7333;stroke-miterlimit:10;} .st7{fill:#333333;} .st8{fill:#666666;} .st9{fill:#F47E60;} .st10{fill:#77A4BD;} .st11{fill:#E0E0E0;} .st12{fill:#A0C8D7;stroke:#333333;stroke-width:4.15;stroke-linecap:round;stroke-linejoin:round;stroke-miterlimit:10;} .st13{fill:#849B87;} .st14{fill:#FFFFFF;stroke:#333333;stroke-width:4.517;stroke-linejoin:round;stroke-miterlimit:10;} .st15{fill:#FFFFFF;stroke:#E15B64;stroke-width:9.375;stroke-miterlimit:10;} .st16{fill:#E0E0E0;stroke:#666666;stroke-width:4;stroke-miterlimit:10;} .st17{fill:#E15B64;} .st18{fill:none;stroke:#666666;stroke-width:4;stroke-linecap:round;stroke-miterlimit:10;} .st19{fill:#FFFFFF;stroke:#333333;stroke-miterlimit:10;} .st20{fill:#E0E0E0;stroke:#333333;stroke-width:4.8241;stroke-miterlimit:10;} .st21{fill:#333333;stroke:#333333;stroke-width:3.0189;stroke-miterlimit:10;} .st22{fill:#E0E0E0;stroke:#333333;stroke-miterlimit:10;} .st23{fill:none;stroke:#333333;stroke-width:4;stroke-miterlimit:10;} .st24{fill:#666666;stroke:#333333;stroke-width:6;stroke-miterlimit:10;} .st25{fill:none;stroke:#333333;stroke-width:3.7466;stroke-linecap:round;stroke-miterlimit:10;} .st26{fill:#ABBD81;stroke:#333333;stroke-width:4;stroke-miterlimit:10;} .st27{fill:#66503A;stroke:#333333;stroke-width:4;stroke-miterlimit:10;} .st28{fill:#FFFFFF;stroke:#333333;stroke-width:4;stroke-miterlimit:10;} .st29{fill:#FFFFFF;stroke:#333333;stroke-width:4;stroke-linecap:round;stroke-miterlimit:10;} .st30{fill:none;stroke:#333333;stroke-width:6;stroke-linecap:round;stroke-miterlimit:10;} .st31{fill:none;stroke:#333333;stroke-width:4;stroke-linecap:round;stroke-linejoin:round;stroke-miterlimit:10;} .st32{fill:#F47E60;stroke:#333333;stroke-width:4.8241;stroke-miterlimit:10;} .st33{fill:#E15B64;stroke:#333333;stroke-width:4.8241;stroke-miterlimit:10;} .st34{fill:#77A4BD;stroke:#333333;stroke-width:4.8241;stroke-miterlimit:10;} .st35{fill:#F8B26A;stroke:#333333;stroke-width:4.8241;stroke-miterlimit:10;} .st36{fill:#ABBD81;stroke:#333333;stroke-width:4.8241;stroke-miterlimit:10;} .st37{fill:#A0C8D7;stroke:#333333;stroke-width:4.8241;stroke-miterlimit:10;} .st38{fill:#F47E60;stroke:#333333;stroke-miterlimit:10;} .st39{fill:#E15B64;stroke:#333333;stroke-miterlimit:10;} .st40{fill:#77A4BD;stroke:#333333;stroke-miterlimit:10;} .st41{fill:#F8B26A;stroke:#333333;stroke-miterlimit:10;} .st42{fill:#ABBD81;stroke:#333333;stroke-miterlimit:10;} .st43{fill:#A0C8D7;stroke:#333333;stroke-miterlimit:10;} .st44{fill:#666666;stroke:#333333;stroke-width:4;stroke-miterlimit:10;} .st45{fill:#A0C8D7;stroke:#333333;stroke-width:4;stroke-miterlimit:10;} .st46{fill:none;stroke:#FFFFFF;stroke-width:6;stroke-linecap:round;stroke-miterlimit:10;} .st47{fill:#E0E0E0;stroke:#000000;stroke-width:2.5;stroke-linecap:round;stroke-miterlimit:10;} .st48{fill:none;stroke:#E15B64;stroke-width:8;stroke-miterlimit:10;} .st49{fill:#C33737;} .st50{fill:url(#SVGID_1_);stroke:#333333;stroke-width:7.5868;stroke-miterlimit:10;} .st51{fill:none;stroke:#333333;stroke-width:4.7966;stroke-miterlimit:10;} .st52{fill:#1A1A1A;} .st53{opacity:0.8;fill:none;stroke:#FFFFFF;stroke-width:4.7961;stroke-linecap:round;stroke-miterlimit:10;} .st54{opacity:0.8;fill:#FFFFFF;} .st55{fill:#E0E0E0;stroke:#333333;stroke-width:3.6091;stroke-miterlimit:10;} .st56{fill:#E0E0E0;stroke:#333333;stroke-width:3.5573;stroke-miterlimit:10;} .st57{fill:#F8B26A;} .st58{fill:none;stroke:#333333;stroke-width:2.0088;stroke-miterlimit:10;} .st59{fill:none;stroke:#333333;stroke-width:4.3399;stroke-miterlimit:10;} .st60{fill:#333333;stroke:#333333;stroke-width:6;stroke-miterlimit:10;} .st61{fill:none;stroke:#333333;stroke-width:8;stroke-linecap:round;stroke-miterlimit:10;} .st62{fill:#333333;stroke:#333333;stroke-width:4.517;stroke-linejoin:round;stroke-miterlimit:10;} .st63{fill:none;stroke:#333333;stroke-width:4.517;stroke-linecap:round;stroke-linejoin:round;stroke-miterlimit:10;} .st64{fill:none;stroke:#FFFFFF;stroke-width:4.517;stroke-linecap:round;stroke-linejoin:round;stroke-miterlimit:10;} .st65{fill:#FFFFFF;stroke:#333333;stroke-width:6.8572;stroke-linecap:round;stroke-linejoin:round;stroke-miterlimit:10;} .st66{fill:#333333;stroke:#333333;stroke-width:5.9833;stroke-linecap:round;stroke-linejoin:round;stroke-miterlimit:10;} .st67{fill:none;stroke:#333333;stroke-width:6;stroke-linejoin:round;stroke-miterlimit:10;} .st68{fill:none;stroke:#333333;stroke-width:6;stroke-linecap:round;stroke-linejoin:round;stroke-miterlimit:10;} .st69{fill:none;stroke:#333333;stroke-width:5;stroke-miterlimit:10;} .st70{fill-rule:evenodd;clip-rule:evenodd;fill:#FFFFFF;} .st71{fill-rule:evenodd;clip-rule:evenodd;fill:#FFDC6C;} .st72{fill:none;stroke:#F8B26A;stroke-width:1.2695;stroke-linecap:round;stroke-miterlimit:10;} .st73{fill:none;stroke:#333333;stroke-width:3.53;stroke-linecap:round;stroke-miterlimit:10;} .st74{fill:#FFFFFF;stroke:#333333;stroke-width:4.15;stroke-linecap:round;stroke-linejoin:round;stroke-miterlimit:10;} .st75{fill-rule:evenodd;clip-rule:evenodd;fill:#333333;} .st76{fill:none;stroke:#333333;stroke-width:1.2695;stroke-linecap:round;stroke-miterlimit:10;} .st77{fill:#4A3827;} .st78{fill:none;stroke:#333333;stroke-width:6;stroke-miterlimit:10;} .st79{fill:#F5E6C8;} .st80{fill:#E0E0E0;stroke:#666666;stroke-width:3.2312;stroke-miterlimit:10;} .st81{fill:none;stroke:#F8B26A;stroke-width:3;stroke-linecap:round;stroke-linejoin:round;stroke-miterlimit:10;} .st82{fill:#333333;stroke:#FFFFFF;stroke-miterlimit:10;} .st83{fill:none;stroke:#333333;stroke-width:3.7647;stroke-miterlimit:10;} .st84{fill:#77A4BD;stroke:#FFFFFF;stroke-width:3.7647;stroke-miterlimit:10;} .st85{opacity:0.5;fill:#A0C8D7;} .st86{fill:#A0C8D7;stroke:#FFFFFF;stroke-width:2.6329;stroke-linecap:round;stroke-miterlimit:10;} .st87{fill:none;stroke:#849B87;stroke-width:4;stroke-linecap:round;stroke-miterlimit:10;} .st88{fill:none;stroke:#E15B64;stroke-width:4;stroke-linecap:round;stroke-miterlimit:10;} .st89{fill:none;stroke:#849B87;stroke-width:6;stroke-linecap:round;stroke-miterlimit:10;} .st90{fill:none;stroke:#F47E60;stroke-width:6.0118;stroke-linecap:round;stroke-miterlimit:10;} .st91{fill:none;stroke:#E15B64;stroke-width:5.4;stroke-linecap:round;stroke-miterlimit:10;}</style><g class="ld ld-fade" style="transform-origin: 50px 50px 0px; animation-duration: 1s; animation-delay: -0.9375s; animation-direction: normal;"><path class="st7" d="M89.982,48.757H89.98c-0.13-4.085-0.884-8.123-2.246-12.003l-0.125-0.332c-0.183-0.509-0.371-1.016-0.574-1.517 l-0.334-0.774c-0.158-0.374-0.318-0.749-0.487-1.112l-0.078-0.168c-0.166-0.355-0.344-0.705-0.531-1.075l-0.187-0.367 c-0.13-0.249-0.266-0.495-0.404-0.744l-1.44-2.406c-0.214-0.331-0.429-0.658-0.666-1.001l-1.74-2.292L59.423,62.63h28.506 l0.406-1.328c0.048-0.151,0.095-0.303,0.137-0.451c0.106-0.373,0.205-0.746,0.296-1.112c0.146-0.575,0.276-1.153,0.421-1.858 c0.065-0.318,0.13-0.637,0.187-0.96c0.112-0.631,0.202-1.266,0.284-1.905l0.042-0.314c0.029-0.208,0.057-0.415,0.077-0.619 c0.107-1.026,0.174-1.96,0.201-2.843L90,50.103L89.982,48.757z" fill="rgb(51, 51, 51)" style="fill: rgb(51, 51, 51);"></path></g><g class="ld ld-fade" style="transform-origin: 50px 50px 0px; animation-duration: 1s; animation-delay: -0.875s; animation-direction: normal;"><path class="st7" d="M58.024,89.163l1.838-0.429c0.358-0.091,0.714-0.187,1.073-0.288c0.58-0.165,1.156-0.346,1.728-0.536 l0.178-0.059c0.285-0.094,0.569-0.189,0.847-0.29c0.607-0.22,1.204-0.463,1.797-0.711l0.27-0.11 c0.199-0.081,0.398-0.161,0.598-0.251c0.869-0.389,1.728-0.803,2.686-1.315l0.21-0.115c0.214-0.116,0.404-0.225,0.584-0.331 l1.229-0.729c1.731-1.075,3.394-2.292,4.94-3.618c0.687-0.589,1.381-1.232,2.129-1.971l0.121-0.113 c0.72-0.72,1.423-1.479,2.089-2.253c0.896-1.044,1.727-2.114,2.499-3.221l0.121-0.175c0.208-0.303,0.411-0.61,0.688-1.037 l2.006-3.501c0.161-0.315,0.324-0.641,0.412-0.844l1.029-2.795H43.77L58.024,89.163z" fill="rgb(51, 51, 51)" style="fill: rgb(51, 51, 51);"></path></g><g class="ld ld-fade" style="transform-origin: 50px 50px 0px; animation-duration: 1s; animation-delay: -0.8125s; animation-direction: normal;"><path class="st7" d="M20.094,76.527l0.955,1.023c0.106,0.115,0.21,0.229,0.318,0.341c0.266,0.273,0.536,0.54,0.812,0.81 c0.424,0.412,0.86,0.813,1.308,1.212l0.196,0.174c0.208,0.186,0.418,0.37,0.631,0.549c0.49,0.412,0.995,0.806,1.503,1.192 l0.244,0.19c0.169,0.131,0.337,0.263,0.51,0.388c0.771,0.557,1.556,1.093,2.363,1.594l1.219,0.724 c0.187,0.11,0.376,0.219,0.584,0.334l0.337,0.178c0.759,0.407,1.536,0.776,2.445,1.194c0.106,0.054,0.213,0.107,0.311,0.149 c2.804,1.236,5.756,2.149,8.692,2.698l0.157,0.032c0.622,0.115,1.244,0.217,1.859,0.303l0.564,0.066 c0.501,0.063,1.002,0.125,1.499,0.168l0.183,0.017c0.391,0.03,0.78,0.054,1.269,0.08l0.359,0.017 c0.272,0.011,0.542,0.018,0.91,0.024l0.697,0.009l0.854-0.014c0.246-0.005,0.495-0.011,0.736-0.021l0.432-0.02 c0.391-0.021,0.78-0.045,1.321-0.088l2.649-0.483L34.347,51.84L20.094,76.527z M46.909,88.322L46.909,88.322v0.002V88.322z" fill="rgb(51, 51, 51)" style="fill: rgb(51, 51, 51);"></path></g><g class="ld ld-fade" style="transform-origin: 50px 50px 0px; animation-duration: 1s; animation-delay: -0.75s; animation-direction: normal;"><path class="st7" d="M79.906,23.463l-0.961-1.029c-0.107-0.118-0.214-0.234-0.326-0.349c-0.258-0.266-0.521-0.527-0.78-0.777 c-0.438-0.427-0.886-0.841-1.34-1.244l-0.116-0.103c-0.228-0.202-0.454-0.404-0.685-0.598c-0.503-0.423-1.02-0.826-1.539-1.219 l-0.234-0.183c-0.16-0.125-0.32-0.249-0.489-0.373c-0.771-0.558-1.559-1.096-2.371-1.601l-2.148-1.239 c-3.612-1.932-7.49-3.296-11.527-4.055c-1.292-0.243-2.584-0.424-3.868-0.537c-0.072-0.014-0.146-0.02-0.22-0.023L50.85,10.01 l-0.05,1.115l-0.127-1.118l-1.544,0.003c-0.246,0.005-0.494,0.011-0.75,0.021l-0.424,0.021c-0.394,0.021-0.785,0.044-1.174,0.077 l-2.908,0.296L65.653,48.15L79.906,23.463z" fill="rgb(51, 51, 51)" style="fill: rgb(51, 51, 51);"></path></g><g class="ld ld-fade" style="transform-origin: 50px 50px 0px; animation-duration: 1s; animation-delay: -0.6875s; animation-direction: normal;"><path class="st7" d="M41.974,10.828l-1.372,0.32c-0.157,0.035-0.314,0.069-0.468,0.109c-0.356,0.091-0.712,0.187-1.065,0.287 c-0.584,0.166-1.164,0.347-1.742,0.539l-0.161,0.054c-0.282,0.094-0.564,0.189-0.85,0.291c-0.613,0.222-1.221,0.468-1.819,0.718 l-0.263,0.107c-0.195,0.08-0.389,0.158-0.581,0.244c-0.936,0.417-1.776,0.827-2.576,1.254l-2.137,1.235 c-3.491,2.154-6.615,4.828-9.369,8.043c-0.285,0.334-0.561,0.667-0.844,1.022l-0.214,0.276c-0.234,0.297-0.466,0.601-0.7,0.918 l-0.308,0.427c-0.198,0.278-0.386,0.54-0.605,0.866l-1.832,2.984l-0.127,0.228c-0.103,0.184-0.204,0.37-0.312,0.575l-0.254,0.489 c-0.172,0.341-0.343,0.682-0.507,1.026l-1.207,2.676H56.23L41.974,10.828z" fill="rgb(51, 51, 51)" style="fill: rgb(51, 51, 51);"></path></g><g class="ld ld-fade" style="transform-origin: 50px 50px 0px; animation-duration: 1s; animation-delay: -0.625s; animation-direction: normal;"><path class="st7" d="M12.071,37.361l-0.404,1.322c-0.048,0.155-0.097,0.309-0.139,0.457c-0.106,0.37-0.202,0.74-0.297,1.114 c-0.145,0.575-0.275,1.153-0.394,1.734l-0.038,0.18c-0.062,0.302-0.124,0.604-0.175,0.903c-0.112,0.631-0.202,1.268-0.284,1.906 l-0.042,0.309c-0.029,0.208-0.057,0.417-0.077,0.62c-0.107,1.028-0.174,1.962-0.201,2.854l-0.014,0.376 C10,49.37,10,49.577,10,49.785l0.02,1.444c0.13,4.087,0.884,8.123,2.247,12.01l0.137,0.37c0.18,0.492,0.361,0.984,0.554,1.459 l0.281,0.653c0.177,0.421,0.355,0.841,0.545,1.245l0.08,0.172c0.166,0.35,0.34,0.697,0.513,1.037l1.401,2.514 c0.136,0.226,0.273,0.454,0.432,0.705l0.217,0.335c0.216,0.331,0.43,0.661,0.663,0.993l1.678,2.412l21.81-37.774H12.071z" fill="rgb(51, 51, 51)" style="fill: rgb(51, 51, 51);"></path></g><metadata xmlns:d="https://loading.io/stock/" class="ld ld-fade" style="transform-origin: 50px 50px 0px; animation-duration: 1s; animation-delay: -0.5625s; animation-direction: normal;">
<d:name class="ld ld-fade" style="transform-origin: 50px 50px 0px; animation-duration: 1s; animation-delay: -0.5s; animation-direction: normal;">shutter</d:name>
<d:tags class="ld ld-fade" style="transform-origin: 50px 50px 0px; animation-duration: 1s; animation-delay: -0.4375s; animation-direction: normal;">aperture,hole,camera,dslr,lens,exposure,lightness,fan,shot,shutter,camera</d:tags>
<d:license class="ld ld-fade" style="transform-origin: 50px 50px 0px; animation-duration: 1s; animation-delay: -0.375s; animation-direction: normal;">cc-by</d:license>
<d:slug class="ld ld-fade" style="transform-origin: 50px 50px 0px; animation-duration: 1s; animation-delay: -0.3125s; animation-direction: normal;">xfkaqd</d:slug>
</metadata></g></g></g></g><style type="text/css" class="ld ld-fade" style="transform-origin: 50px 50px 0px; animation-duration: 1s; animation-delay: -0.25s; animation-direction: normal;">@keyframes ld-fade {
  0% {
    opacity: 1;
  }
  100% {
    opacity: 0;
  }
}
@-webkit-keyframes ld-fade {
  0% {
    opacity: 1;
  }
  100% {
    opacity: 0;
  }
}
.ld.ld-fade {
  -webkit-animation: ld-fade 1s infinite linear;
  animation: ld-fade 1s infinite linear;
}
</style></svg>